<?xml version="1.0" standalone="no"?>
<!DOCTYPE svg PUBLIC "-//W3C//DTD SVG 20010904//EN"
 "http://www.w3.org/TR/2001/REC-SVG-20010904/DTD/svg10.dtd">
<svg version="1.0" xmlns="http://www.w3.org/2000/svg"
 width="1024.000000pt" height="1024.000000pt" viewBox="0 0 1024.000000 1024.000000"
 preserveAspectRatio="xMidYMid meet">

<g transform="translate(0.000000,1024.000000) scale(0.100000,-0.100000)"
fill="#000000" stroke="none">
<path d="M0 5120 l0 -5120 2498 2 c1373 1 2468 3 2432 5 -766 34 -1423 200
-2070 522 -410 204 -726 412 -1051 691 -227 196 -535 520 -730 771 -577 738
-938 1637 -1045 2599 -21 197 -29 645 -15 851 72 1005 412 1936 996 2724 273
369 693 790 1051 1057 804 596 1754 941 2774 1007 70 5 -975 9 -2357 10
l-2483 1 0 -5120z"/>
<path d="M5425 10229 c1819 -123 3396 -1149 4231 -2753 290 -558 485 -1221
549 -1868 104 -1046 -128 -2127 -651 -3040 -409 -712 -1019 -1350 -1706 -1782
-734 -461 -1566 -730 -2403 -775 -85 -5 922 -9 2323 -10 l2472 -1 0 5120 0
5120 -2467 -1 c-1374 -1 -2415 -5 -2348 -10z"/>
<path d="M5093 9623 c-12 -2 -33 -16 -47 -30 l-26 -26 0 -234 0 -235 29 -29
c24 -24 38 -29 76 -29 38 0 52 5 76 29 l29 29 0 232 0 232 -29 29 c-16 16 -36
29 -44 29 -9 0 -21 2 -29 4 -7 2 -23 1 -35 -1z"/>
<path d="M6193 9442 c-32 -24 -203 -403 -203 -448 0 -46 14 -70 50 -89 39 -20
79 -19 115 3 24 15 47 57 123 223 51 112 92 214 92 227 0 31 -26 79 -49 92
-31 16 -103 12 -128 -8z"/>
<path d="M4926 8829 c-369 -33 -707 -187 -974 -444 -337 -324 -507 -735 -489
-1185 14 -357 140 -652 412 -965 183 -210 255 -350 285 -552 22 -148 89 -247
203 -299 l62 -29 665 0 c761 0 726 -4 824 86 69 63 93 112 116 241 40 229 95
335 286 558 220 257 327 460 386 733 32 147 32 426 -1 577 -68 321 -208 578
-440 811 -281 280 -604 431 -1006 469 -124 11 -186 11 -329 -1z m439 -264
c116 -20 273 -73 385 -129 250 -124 460 -332 587 -582 105 -206 146 -370 146
-594 0 -331 -94 -554 -376 -891 -182 -218 -256 -356 -298 -556 -46 -218 -34
-208 -254 -208 l-160 0 -3 641 -2 641 137 6 c204 8 301 44 397 146 158 170
150 440 -19 600 -219 208 -574 146 -700 -121 -41 -86 -55 -166 -55 -307 0 -90
-2 -102 -16 -97 -9 3 -33 6 -53 6 l-38 0 -5 138 c-6 154 -25 227 -82 317 -90
140 -276 216 -443 181 -198 -41 -331 -183 -356 -381 -16 -118 42 -274 133
-359 98 -91 211 -125 423 -126 l97 0 0 -645 0 -645 -142 0 c-154 0 -205 9
-233 40 -9 10 -25 60 -36 110 -33 166 -91 312 -172 432 -23 35 -90 119 -148
188 -132 158 -198 255 -261 386 -190 398 -140 875 132 1257 75 105 237 263
339 331 194 129 409 206 671 240 67 8 316 -3 405 -19z m-655 -1054 c19 -10 48
-40 65 -66 30 -48 30 -50 30 -189 l0 -141 -105 2 c-129 3 -178 16 -229 59
-108 93 -87 268 39 332 57 28 150 30 200 3z m998 -15 c46 -32 92 -112 92 -160
0 -87 -48 -160 -127 -194 -37 -16 -75 -21 -163 -24 l-115 -3 -3 115 c-4 171
19 238 96 280 57 31 165 24 220 -14z m-558 -1251 l0 -645 -55 0 -55 0 0 645 0
645 55 0 55 0 0 -645z"/>
<path d="M2330 8234 c-14 -2 -59 -9 -100 -15 -145 -21 -314 -88 -449 -177 -89
-58 -227 -198 -291 -294 -113 -169 -169 -321 -197 -533 -45 -340 73 -687 316
-934 158 -161 329 -258 550 -314 128 -32 385 -31 531 1 279 62 764 203 814
237 20 13 34 34 40 57 9 34 5 43 -41 120 -169 276 -248 528 -260 828 -6 166
11 319 54 478 49 183 45 207 -56 281 -195 144 -421 234 -656 261 -87 9 -203
11 -255 4z m370 -35 c70 -14 230 -65 250 -80 12 -9 11 -10 -5 -4 -34 12 -49
11 -50 -5 -1 -8 -6 -14 -11 -13 -6 1 -11 -5 -11 -13 0 -11 5 -10 22 6 26 25
36 26 28 3 -5 -15 -3 -16 8 -5 17 16 34 16 21 -1 -9 -10 -2 -13 30 -13 36 0
38 1 22 13 -10 7 -22 13 -28 13 -5 0 -7 3 -4 6 3 3 34 -9 68 -26 50 -25 59
-34 50 -45 -7 -8 -10 -20 -7 -27 4 -8 6 -7 6 4 1 9 5 20 11 23 14 9 52 -14 44
-27 -5 -7 -2 -9 8 -6 21 8 146 -86 159 -120 6 -15 8 -43 5 -62 -8 -52 -54
-208 -56 -190 -1 10 -4 9 -10 -5 -12 -27 -12 -43 0 -25 13 19 13 20 -5 -96 -8
-55 -15 -168 -15 -253 0 -85 -3 -151 -7 -148 -3 4 -6 27 -6 50 0 30 -4 44 -13
44 -10 0 -10 -5 -3 -19 6 -11 7 -27 3 -36 -15 -36 -11 -52 13 -52 20 0 23 -5
22 -32 -1 -30 -2 -30 -8 -9 -4 14 -12 26 -19 27 -8 2 -9 1 -1 -3 7 -4 8 -8 1
-12 -6 -3 -12 -26 -13 -51 -3 -40 -1 -45 18 -46 13 -1 20 3 17 8 -3 4 -9 6
-13 3 -5 -2 -8 7 -8 20 0 28 17 35 18 8 0 -15 2 -15 9 2 8 19 9 19 9 -1 2 -41
59 -250 90 -327 17 -44 28 -84 24 -90 -3 -7 -2 -9 2 -4 11 10 57 -81 48 -96
-3 -7 -3 -9 2 -5 4 4 32 -32 61 -80 86 -139 72 -181 -74 -226 -96 -30 -98 -30
-85 -13 14 18 10 40 -7 44 -13 4 -13 3 0 -6 12 -9 11 -11 -7 -11 -13 0 -23 -5
-23 -10 0 -6 3 -9 8 -8 7 3 12 -5 12 -21 0 -10 -119 -45 -128 -37 -3 3 3 6 13
6 10 0 16 3 12 6 -8 8 -48 -6 -42 -15 2 -5 -31 -18 -74 -30 -91 -24 -91 -24
-91 -10 0 5 5 7 12 3 7 -4 8 -3 4 5 -6 8 -12 9 -20 2 -7 -6 -16 -8 -19 -4 -4
3 -14 0 -24 -8 -11 -9 -14 -10 -9 -1 4 6 2 12 -3 12 -6 0 -11 -7 -11 -15 0
-17 25 -20 35 -5 4 6 11 7 17 4 16 -10 -31 -26 -54 -18 -12 3 -17 12 -14 20 6
16 -3 18 -24 4 -11 -7 -11 -10 -2 -10 7 0 10 -4 7 -10 -3 -5 2 -10 12 -11 10
0 -22 -12 -72 -25 -93 -24 -137 -30 -100 -13 18 8 17 8 -5 6 -14 -1 -24 -7
-23 -13 6 -33 -354 -52 -482 -25 -112 23 -226 61 -219 73 4 7 3 8 -5 4 -15
-10 -124 41 -116 54 3 5 0 7 -8 5 -19 -8 -170 102 -247 180 -35 36 -59 65 -53
65 7 0 19 -10 27 -22 9 -12 16 -17 16 -11 0 16 -29 43 -45 43 -20 0 -98 106
-89 121 4 7 3 9 -4 5 -14 -8 -105 172 -99 196 3 10 1 16 -3 13 -12 -7 -37 78
-56 190 -12 65 -15 130 -11 235 4 143 30 296 47 285 5 -3 11 -1 15 5 3 5 1 10
-4 10 -6 0 -11 6 -11 13 0 20 63 169 93 220 24 40 31 46 47 37 13 -7 21 -7 25
0 4 6 3 10 -2 9 -19 -3 -33 2 -33 12 0 5 5 7 12 3 7 -4 8 -3 4 5 -10 15 62
113 76 104 6 -3 8 -2 5 4 -9 14 63 95 79 89 7 -3 11 0 9 7 -2 7 20 31 49 55
53 42 74 52 60 30 -4 -7 -3 -8 5 -4 6 4 9 11 6 16 -11 19 215 136 242 126 8
-3 12 -2 9 3 -5 8 90 37 184 57 109 22 354 19 480 -7z"/>
<path d="M2290 8200 c0 -5 -7 -7 -15 -4 -8 3 -24 -1 -37 -10 -12 -9 -17 -16
-11 -16 7 0 14 4 18 9 7 12 46 5 55 -10 4 -6 9 0 12 15 4 18 1 26 -8 26 -8 0
-14 -4 -14 -10z"/>
<path d="M2531 8189 c11 -11 23 -19 25 -16 6 6 -25 37 -37 37 -5 0 0 -9 12
-21z"/>
<path d="M2565 8200 c6 -8 10 -18 10 -22 0 -3 2 -8 5 -10 3 -1 4 -1 3 1 -2 2
3 11 9 20 7 9 8 13 4 9 -5 -4 -16 -2 -24 5 -13 10 -14 9 -7 -3z"/>
<path d="M2640 8185 c0 -8 -4 -14 -9 -12 -8 2 -11 -3 -11 -18 0 -3 9 -1 20 5
21 11 28 40 10 40 -5 0 -10 -7 -10 -15z"/>
<path d="M2186 8175 c4 -8 8 -15 10 -15 2 0 4 7 4 15 0 8 -4 15 -10 15 -5 0
-7 -7 -4 -15z"/>
<path d="M2485 8180 c3 -5 8 -10 11 -10 2 0 4 5 4 10 0 6 -5 10 -11 10 -5 0
-7 -4 -4 -10z"/>
<path d="M2684 8181 c4 -5 0 -12 -6 -15 -7 -4 2 -4 20 -1 20 3 31 1 27 -5 -7
-11 9 -11 45 0 24 7 23 7 -12 15 -20 4 -41 4 -47 0 -6 -3 -11 -1 -11 4 0 6 -5
11 -11 11 -5 0 -8 -4 -5 -9z"/>
<path d="M2130 8168 c0 -4 4 -8 9 -8 6 0 12 4 15 8 3 5 -1 9 -9 9 -8 0 -15 -4
-15 -9z"/>
<path d="M2073 8160 c-34 -14 -28 -21 7 -9 17 6 30 13 30 15 0 6 -12 4 -37 -6z"/>
<path d="M2449 8143 c-13 -17 -13 -17 6 -3 11 8 22 16 24 17 2 2 0 3 -6 3 -6
0 -17 -8 -24 -17z"/>
<path d="M2830 8140 c11 -11 23 -20 27 -20 3 0 -2 9 -12 20 -10 11 -22 20 -27
20 -4 0 1 -9 12 -20z"/>
<path d="M2792 8130 c0 -14 2 -19 5 -12 2 6 2 18 0 25 -3 6 -5 1 -5 -13z"/>
<path d="M2738 8133 c7 -3 16 -2 19 1 4 3 -2 6 -13 5 -11 0 -14 -3 -6 -6z"/>
<path d="M1982 8123 c-7 -2 -17 -13 -22 -22 -8 -15 -5 -18 13 -17 15 1 22 8
23 24 1 12 1 22 0 21 0 0 -7 -3 -14 -6z"/>
<path d="M2496 8102 c-3 -5 1 -9 9 -9 8 0 12 4 9 9 -3 4 -7 8 -9 8 -2 0 -6 -4
-9 -8z"/>
<path d="M1910 8091 c0 -10 19 -25 25 -20 1 2 -3 10 -11 17 -8 7 -14 8 -14 3z"/>
<path d="M2660 8090 c-8 -5 -12 -12 -9 -15 4 -3 12 1 19 10 14 17 11 19 -10 5z"/>
<path d="M2960 8060 c-12 -7 -12 -10 -1 -10 8 0 11 -6 7 -16 -3 -8 -2 -13 3
-10 5 3 11 0 14 -8 3 -7 19 -13 36 -14 28 -1 30 1 21 19 -13 23 -25 25 -16 3
6 -15 4 -15 -11 -3 -11 9 -14 10 -9 2 4 -7 2 -13 -3 -13 -10 0 -15 14 -12 33
0 4 -4 7 -10 7 -5 0 -7 5 -4 10 8 12 4 12 -15 0z"/>
<path d="M1840 8050 c-9 -6 -10 -10 -3 -10 6 0 15 5 18 10 8 12 4 12 -15 0z"/>
<path d="M2636 8048 c3 -5 10 -6 15 -3 13 9 11 12 -6 12 -8 0 -12 -4 -9 -9z"/>
<path d="M3038 8053 c7 -3 16 -2 19 1 4 3 -2 6 -13 5 -11 0 -14 -3 -6 -6z"/>
<path d="M1960 8046 c0 -2 7 -7 16 -10 8 -3 12 -2 9 4 -6 10 -25 14 -25 6z"/>
<path d="M2348 8043 c7 -3 16 -2 19 1 4 3 -2 6 -13 5 -11 0 -14 -3 -6 -6z"/>
<path d="M2536 8023 c-6 -14 -5 -15 5 -6 7 7 10 15 7 18 -3 3 -9 -2 -12 -12z"/>
<path d="M2590 8036 c0 -2 8 -10 18 -17 15 -13 16 -12 3 4 -13 16 -21 21 -21
13z"/>
<path d="M3050 8029 c0 -9 7 -24 16 -35 14 -18 14 -18 3 6 -7 14 -11 27 -10
28 2 2 0 6 -3 10 -3 3 -6 -1 -6 -9z"/>
<path d="M1806 8015 c4 -8 7 -15 9 -15 2 0 5 7 9 15 3 9 0 15 -9 15 -9 0 -12
-6 -9 -15z"/>
<path d="M2196 8007 c3 -10 9 -15 12 -12 3 3 0 11 -7 18 -10 9 -11 8 -5 -6z"/>
<path d="M3110 8010 c0 -5 4 -10 9 -10 6 0 13 5 16 10 3 6 -1 10 -9 10 -9 0
-16 -4 -16 -10z"/>
<path d="M2320 8000 c-12 -7 -10 -9 7 -7 12 0 19 5 17 9 -6 10 -6 10 -24 -2z"/>
<path d="M2050 7990 c0 -5 5 -10 11 -10 5 0 7 5 4 10 -3 6 -8 10 -11 10 -2 0
-4 -4 -4 -10z"/>
<path d="M1753 7983 c-15 -5 -18 -33 -4 -33 8 0 25 30 19 35 -2 1 -9 0 -15 -2z"/>
<path d="M2666 7963 c-6 -14 -5 -15 5 -6 7 7 10 15 7 18 -3 3 -9 -2 -12 -12z"/>
<path d="M2770 7971 c0 -6 4 -13 10 -16 6 -3 7 1 4 9 -7 18 -14 21 -14 7z"/>
<path d="M3090 7972 c0 -7 -5 -11 -11 -9 -6 1 -13 -7 -15 -17 -2 -18 -1 -18
19 2 11 12 18 25 14 28 -4 4 -7 2 -7 -4z"/>
<path d="M3205 7959 c6 -9 3 -11 -9 -6 -11 4 -15 3 -11 -4 4 -6 13 -8 19 -6 7
3 19 1 27 -4 12 -8 11 -9 -1 -7 -9 2 -18 -1 -20 -7 -3 -5 10 -10 28 -10 37 -1
39 2 15 22 -33 25 -56 36 -48 22z"/>
<path d="M2270 7950 c0 -5 5 -10 11 -10 5 0 7 5 4 10 -3 6 -8 10 -11 10 -2 0
-4 -4 -4 -10z"/>
<path d="M2462 7936 c7 -8 15 -12 17 -11 5 6 -10 25 -20 25 -5 0 -4 -6 3 -14z"/>
<path d="M3110 7940 c0 -5 5 -10 11 -10 5 0 7 5 4 10 -3 6 -8 10 -11 10 -2 0
-4 -4 -4 -10z"/>
<path d="M1720 7930 c-9 -6 -10 -10 -3 -10 6 0 15 5 18 10 8 12 4 12 -15 0z"/>
<path d="M1756 7932 c-3 -5 1 -9 9 -9 8 0 12 4 9 9 -3 4 -7 8 -9 8 -2 0 -6 -4
-9 -8z"/>
<path d="M2496 7925 c4 -8 8 -15 10 -15 2 0 4 7 4 15 0 8 -4 15 -10 15 -5 0
-7 -7 -4 -15z"/>
<path d="M2765 7929 c4 -10 2 -20 -4 -24 -6 -3 -11 -11 -11 -18 0 -6 7 -1 16
12 13 17 14 25 5 34 -9 9 -11 8 -6 -4z"/>
<path d="M2396 7914 c-18 -17 -20 -24 -8 -24 4 0 13 9 20 20 15 24 9 26 -12 4z"/>
<path d="M3279 7908 c0 -2 -2 -15 -3 -30 -1 -21 3 -28 16 -28 10 0 18 5 18 11
0 5 -5 7 -12 3 -8 -5 -9 -2 -5 9 3 10 2 17 -4 17 -6 0 -7 5 -4 10 3 6 4 10 1
10 -3 0 -6 -1 -7 -2z"/>
<path d="M2441 7884 c0 -11 3 -14 6 -6 3 7 2 16 -1 19 -3 4 -6 -2 -5 -13z"/>
<path d="M2113 7875 c0 -7 6 -11 13 -8 9 3 11 -2 7 -16 -3 -12 -3 -21 0 -21 2
0 7 9 10 20 3 13 -1 24 -12 30 -13 6 -18 5 -18 -5z"/>
<path d="M2346 7875 c-3 -8 -1 -15 4 -15 6 0 10 7 10 15 0 8 -2 15 -4 15 -2 0
-6 -7 -10 -15z"/>
<path d="M3246 7868 c3 -5 10 -6 15 -3 13 9 11 12 -6 12 -8 0 -12 -4 -9 -9z"/>
<path d="M1760 7850 c-9 -6 -10 -10 -3 -10 6 0 15 5 18 10 8 12 4 12 -15 0z"/>
<path d="M2320 7844 c0 -8 5 -12 10 -9 6 4 8 11 5 16 -9 14 -15 11 -15 -7z"/>
<path d="M2376 7848 c5 -8 2 -9 -10 -5 -9 4 -15 3 -11 -2 3 -6 14 -9 25 -8 14
1 16 4 8 14 -13 16 -22 17 -12 1z"/>
<path d="M2517 7849 c7 -7 15 -10 18 -7 3 3 -2 9 -12 12 -14 6 -15 5 -6 -5z"/>
<path d="M3023 7845 c0 -8 4 -12 9 -9 5 3 6 10 3 15 -9 13 -12 11 -12 -6z"/>
<path d="M2435 7840 c-18 -8 -17 -9 8 -9 15 -1 27 4 27 9 0 12 -8 12 -35 0z"/>
<path d="M2151 7838 c-1 -4 3 -18 8 -31 9 -22 6 -27 -21 -38 -16 -7 -58 -30
-91 -52 -34 -22 -64 -40 -67 -39 -3 0 -14 -5 -25 -11 -11 -6 -23 -11 -26 -10
-3 1 -5 -8 -5 -20 2 -25 -12 -49 -25 -42 -4 3 -16 -6 -25 -20 -9 -13 -21 -22
-26 -19 -7 5 -7 1 0 -11 7 -14 2 -35 -24 -89 -19 -38 -37 -85 -40 -103 -3 -18
-9 -31 -13 -29 -8 5 -9 -16 -13 -191 -2 -77 1 -139 6 -136 4 3 5 -10 2 -28 -3
-19 -3 -28 0 -20 4 7 14 -11 25 -43 11 -32 17 -61 14 -66 -3 -6 -1 -18 5 -27
9 -15 10 -14 5 7 -4 19 -1 17 14 -10 10 -19 17 -39 13 -45 -3 -5 -2 -7 3 -3 4
4 19 -10 32 -30 14 -20 38 -51 54 -68 16 -17 26 -34 22 -38 -5 -4 -1 -6 7 -4
8 2 14 -3 12 -10 -1 -8 2 -11 7 -7 13 8 32 -30 25 -49 -3 -9 -9 -14 -13 -11
-4 2 -8 -2 -8 -9 0 -8 6 -12 14 -9 7 3 13 11 13 18 0 7 6 15 13 18 18 7 143
-58 129 -67 -7 -4 -12 -2 -12 3 0 6 -5 11 -11 11 -5 0 -7 -4 -4 -10 3 -5 2
-10 -4 -10 -16 0 -22 18 -9 23 8 3 6 6 -4 6 -13 1 -18 -7 -18 -23 0 -22 3 -23
33 -17 35 7 55 7 234 -6 66 -4 119 -5 117 -2 -2 4 17 9 42 13 25 3 79 19 120
36 72 29 102 31 88 8 -4 -6 -2 -8 3 -5 6 4 19 -3 29 -16 l19 -22 -22 18 c-12
10 -24 14 -27 9 -6 -10 19 -25 44 -27 9 0 14 -8 12 -20 -2 -17 -1 -17 7 -5 10
14 12 13 15 -9 0 -5 5 -13 10 -18 6 -5 6 -2 1 7 -5 9 -5 12 1 7 5 -5 10 -13
10 -18 1 -5 2 -13 3 -19 0 -5 16 -10 34 -10 l32 1 -28 12 c-27 12 -26 12 22
13 41 0 48 -2 40 -13 -16 -18 -1 -17 17 2 9 8 13 19 10 24 -9 14 20 21 35 8
11 -10 11 -9 0 6 -12 16 -8 22 12 18 5 -1 6 3 2 9 -3 5 -1 18 4 27 10 17 10
17 11 1 0 -10 6 -18 13 -18 9 0 11 12 8 43 -4 35 -5 38 -11 17 -6 -25 -6 -25
-12 5 -3 17 -8 39 -12 50 -5 15 -4 14 5 -2 7 -13 16 -23 22 -23 5 0 3 10 -6
23 -8 12 -20 21 -25 20 -5 -1 -31 21 -57 48 -48 50 -48 52 -32 78 9 14 21 26
28 26 7 0 14 6 17 14 3 9 0 11 -8 6 -7 -4 -11 -4 -8 1 2 5 12 28 22 51 15 36
21 41 43 37 18 -3 23 -1 17 8 -4 7 -7 26 -7 43 l2 30 -15 -35 c-8 -21 -12 -25
-9 -10 39 178 44 270 20 384 -8 38 -13 72 -10 74 3 3 5 -1 5 -8 0 -7 2 -11 5
-8 8 8 -6 39 -15 33 -11 -7 -23 32 -15 45 3 5 1 18 -5 27 -9 15 -10 14 -6 -7
5 -22 4 -21 -8 5 -8 16 -12 36 -9 45 4 13 4 13 -6 0 -9 -13 -11 -13 -12 0 -1
8 -1 19 0 23 1 4 -5 18 -14 30 -8 12 -15 18 -15 13 0 -5 -7 -3 -15 4 -18 15
-20 34 -2 24 6 -4 5 1 -4 12 -9 10 -15 29 -13 42 2 12 -1 22 -7 22 -5 0 -7 4
-4 10 3 6 -1 7 -9 4 -17 -6 -15 -50 1 -47 5 1 10 -5 10 -13 0 -11 -6 -9 -23 7
-13 12 -20 28 -17 38 3 10 2 12 -4 5 -5 -8 -24 -1 -60 26 -29 20 -49 41 -45
45 4 5 2 5 -4 2 -7 -4 -36 4 -65 18 -30 13 -49 24 -43 24 6 1 11 8 11 16 0 13
-2 13 -17 0 -13 -12 -26 -13 -56 -7 l-39 8 32 5 c18 3 30 2 27 -3 -3 -4 2 -8
12 -8 14 0 14 3 4 15 -8 9 -20 13 -29 9 -9 -4 -79 -10 -156 -15 -77 -4 -150
-11 -163 -15 -19 -5 -21 -3 -15 12 4 10 8 13 10 7 2 -5 15 -8 28 -5 42 8 28
17 -31 20 -35 1 -53 -1 -49 -8 3 -5 2 -10 -4 -10 -5 0 -12 6 -14 13 -3 6 -6 9
-6 5z m54 -18 c3 -5 1 -10 -4 -10 -6 0 -11 5 -11 10 0 6 2 10 4 10 3 0 8 -4
11 -10z m-5 -20 c12 -8 11 -10 -7 -10 -13 0 -23 5 -23 10 0 13 11 13 30 0z
m354 -10 c250 -64 419 -266 456 -544 20 -150 -18 -340 -95 -465 l-33 -55 59
-65 c53 -59 59 -70 59 -109 0 -37 -6 -50 -34 -78 -28 -28 -41 -34 -77 -34 -40
0 -49 5 -109 65 l-66 66 -65 -30 c-174 -81 -368 -78 -539 6 -41 20 -79 39 -84
41 -5 3 -5 -2 -1 -9 5 -8 6 -12 2 -9 -3 3 -6 10 -7 15 -1 6 -33 42 -70 81
-223 235 -243 624 -47 898 20 27 33 54 30 62 -4 12 34 40 50 36 5 -1 22 9 39
23 126 106 354 151 532 105z m-673 -236 c-11 -15 -21 -24 -21 -20 0 12 33 57
37 52 3 -3 -4 -17 -16 -32z"/>
<path d="M1956 7645 c-11 -8 -17 -17 -14 -20 2 -3 13 4 23 15 21 23 18 25 -9
5z"/>
<path d="M2272 7561 c-142 -49 -238 -197 -249 -384 -13 -203 69 -367 216 -435
46 -22 71 -26 141 -27 81 0 172 20 154 34 -5 3 -33 32 -61 63 -48 52 -53 61
-53 103 0 40 5 52 34 81 29 29 41 34 80 34 43 0 49 -4 110 -67 l64 -66 16 37
c31 73 39 122 40 216 0 198 -92 354 -240 409 -70 27 -179 27 -252 2z m223 -6
c39 -13 39 -13 7 -11 -17 2 -35 6 -39 9 -3 4 -20 6 -37 6 -27 -2 -28 -2 -6 -6
14 -3 30 -9 35 -13 6 -4 27 -13 48 -18 30 -9 37 -8 37 4 0 40 122 -68 158
-141 42 -85 55 -152 50 -264 -4 -76 -11 -120 -26 -156 -18 -42 -28 -52 -23
-22 1 5 -2 6 -7 3 -5 -3 -31 17 -57 44 -58 59 -96 70 -149 45 -67 -32 -101
-116 -71 -179 7 -15 5 -17 -6 -11 -12 8 -12 6 0 -8 8 -10 16 -15 19 -12 9 9
42 -27 35 -38 -3 -5 -1 -7 4 -4 11 7 50 -30 41 -38 -3 -3 -33 -10 -67 -16
-171 -27 -329 72 -381 239 -25 80 -39 229 -20 217 9 -5 10 -2 5 14 -8 28 4
103 16 96 5 -4 6 0 4 8 -8 18 23 89 35 82 5 -3 7 0 5 7 -7 17 34 72 77 105 61
46 162 83 142 52 -4 -8 0 -9 15 -4 16 5 20 3 15 -9 -3 -9 -11 -16 -17 -16 -6
0 -7 -3 -4 -7 7 -6 47 29 47 41 0 2 -10 7 -22 9 -13 2 4 5 37 5 33 0 78 -6
100 -13z"/>
<path d="M2290 7535 c0 -8 2 -15 4 -15 2 0 6 7 10 15 3 8 1 15 -4 15 -6 0 -10
-7 -10 -15z"/>
<path d="M2410 7536 c0 -2 9 -6 20 -9 11 -3 18 -1 14 4 -5 9 -34 13 -34 5z"/>
<path d="M2210 7499 c0 -5 -4 -8 -9 -4 -5 3 -12 1 -15 -4 -4 -5 2 -8 11 -7 15
3 33 26 19 26 -3 0 -6 -5 -6 -11z"/>
<path d="M2600 7481 c0 -5 7 -12 16 -15 14 -5 15 -4 4 9 -14 17 -20 19 -20 6z"/>
<path d="M2174 7459 c1 -7 10 -13 19 -15 9 -1 15 2 11 7 -3 5 -9 7 -14 4 -4
-3 -11 0 -13 5 -3 6 -4 5 -3 -1z"/>
<path d="M2220 7450 c0 -5 5 -10 11 -10 5 0 7 5 4 10 -3 6 -8 10 -11 10 -2 0
-4 -4 -4 -10z"/>
<path d="M2140 7421 c0 -5 5 -13 10 -16 6 -3 10 -2 10 4 0 5 -4 13 -10 16 -5
3 -10 2 -10 -4z"/>
<path d="M2674 7387 c0 -13 6 -24 13 -24 9 0 9 6 1 21 -15 30 -16 30 -14 3z"/>
<path d="M2606 7372 c-3 -5 1 -9 9 -9 8 0 12 4 9 9 -3 4 -7 8 -9 8 -2 0 -6 -4
-9 -8z"/>
<path d="M2116 7358 c3 -5 10 -6 15 -3 13 9 11 12 -6 12 -8 0 -12 -4 -9 -9z"/>
<path d="M2489 7349 c14 -5 28 -6 33 -1 4 4 -7 9 -25 9 -30 2 -31 2 -8 -8z"/>
<path d="M2715 7281 c-3 -5 -1 -12 5 -16 5 -3 10 1 10 9 0 18 -6 21 -15 7z"/>
<path d="M2057 7263 c-10 -9 -9 -23 1 -23 5 0 9 7 9 15 0 17 -1 18 -10 8z"/>
<path d="M2510 7236 c0 -2 7 -7 16 -10 8 -3 12 -2 9 4 -6 10 -25 14 -25 6z"/>
<path d="M2061 7214 c0 -11 3 -14 6 -6 3 7 2 16 -1 19 -3 4 -6 -2 -5 -13z"/>
<path d="M2728 7207 c-3 -19 -2 -25 4 -19 6 6 8 18 6 28 -3 14 -5 12 -10 -9z"/>
<path d="M2065 7180 c3 -5 8 -10 11 -10 2 0 4 5 4 10 0 6 -5 10 -11 10 -5 0
-7 -4 -4 -10z"/>
<path d="M2040 7135 c0 -15 4 -24 10 -20 6 3 10 12 10 20 0 8 -4 17 -10 20 -6
4 -10 -5 -10 -20z"/>
<path d="M2720 7140 c0 -11 5 -20 10 -20 6 0 10 9 10 20 0 11 -4 20 -10 20 -5
0 -10 -9 -10 -20z"/>
<path d="M2731 7088 c0 -9 -4 -25 -7 -35 -5 -14 -4 -15 5 -7 7 7 11 22 8 35
-2 13 -5 16 -6 7z"/>
<path d="M2498 7083 c7 -3 16 -2 19 1 4 3 -2 6 -13 5 -11 0 -14 -3 -6 -6z"/>
<path d="M2595 7061 c-3 -6 3 -9 14 -8 11 0 17 5 15 9 -7 11 -22 10 -29 -1z"/>
<path d="M2478 7053 c7 -3 16 -2 19 1 4 3 -2 6 -13 5 -11 0 -14 -3 -6 -6z"/>
<path d="M2050 7036 c0 -17 14 -29 23 -20 8 8 -3 34 -14 34 -5 0 -9 -6 -9 -14z"/>
<path d="M2400 7030 c0 -5 7 -7 15 -4 8 4 15 8 15 10 0 2 -7 4 -15 4 -8 0 -15
-4 -15 -10z"/>
<path d="M2435 7020 c-10 -11 -22 -17 -28 -13 -6 4 -7 1 -2 -6 5 -9 14 -6 34
11 14 13 28 24 30 26 2 1 0 2 -6 2 -5 0 -18 -9 -28 -20z"/>
<path d="M2611 7033 c-1 -7 14 -23 32 -36 49 -37 56 -39 53 -20 -2 10 -9 19
-17 19 -8 1 -19 2 -26 3 -6 1 -9 10 -5 24 5 19 3 20 -10 9 -13 -10 -17 -10
-21 0 -4 9 -6 9 -6 1z"/>
<path d="M2120 6871 c0 -6 4 -13 10 -16 6 -3 7 1 4 9 -7 18 -14 21 -14 7z"/>
<path d="M2190 6801 c0 -13 35 -32 44 -24 3 3 6 11 6 16 0 6 -3 7 -6 4 -4 -3
-15 -2 -25 4 -13 6 -19 6 -19 0z"/>
<path d="M2433 6755 c0 -8 7 -15 15 -15 12 0 12 3 2 15 -7 8 -13 15 -15 15 -1
0 -2 -7 -2 -15z"/>
<path d="M2480 6760 c0 -5 5 -10 11 -10 5 0 7 5 4 10 -3 6 -8 10 -11 10 -2 0
-4 -4 -4 -10z"/>
<path d="M3136 7828 c3 -5 10 -6 15 -3 13 9 11 12 -6 12 -8 0 -12 -4 -9 -9z"/>
<path d="M3253 7825 c0 -8 4 -12 9 -9 5 3 6 10 3 15 -9 13 -12 11 -12 -6z"/>
<path d="M2676 7818 c3 -5 10 -6 15 -3 13 9 11 12 -6 12 -8 0 -12 -4 -9 -9z"/>
<path d="M1801 7804 c0 -11 3 -14 6 -6 3 7 2 16 -1 19 -3 4 -6 -2 -5 -13z"/>
<path d="M3126 7802 c-3 -5 1 -9 9 -9 8 0 12 4 9 9 -3 4 -7 8 -9 8 -2 0 -6 -4
-9 -8z"/>
<path d="M3194 7776 c-9 -19 -9 -23 1 -19 14 5 28 43 17 43 -4 0 -12 -11 -18
-24z"/>
<path d="M3000 7780 c0 -5 5 -10 11 -10 5 0 7 5 4 10 -3 6 -8 10 -11 10 -2 0
-4 -4 -4 -10z"/>
<path d="M3050 7786 c0 -3 9 -10 20 -16 11 -6 20 -8 20 -6 0 3 -9 10 -20 16
-11 6 -20 8 -20 6z"/>
<path d="M1650 7770 c-12 -7 -10 -9 7 -7 12 0 19 5 17 9 -6 10 -6 10 -24 -2z"/>
<path d="M2733 7765 c0 -8 4 -12 9 -9 5 3 6 10 3 15 -9 13 -12 11 -12 -6z"/>
<path d="M2816 7757 c3 -10 9 -15 12 -12 3 3 0 11 -7 18 -10 9 -11 8 -5 -6z"/>
<path d="M3250 7765 c0 -10 29 -24 34 -17 3 6 -3 12 -14 15 -11 3 -20 4 -20 2z"/>
<path d="M2046 7743 c-3 -7 -2 -13 3 -13 5 0 14 6 20 13 8 10 7 14 -4 14 -8 0
-16 -6 -19 -14z"/>
<path d="M2753 7747 c-5 -8 25 -47 37 -47 3 0 6 13 6 28 0 21 -5 28 -19 28
-10 0 -21 -4 -24 -9z"/>
<path d="M2822 7718 c2 -6 10 -13 16 -14 7 -1 8 0 2 3 -5 2 -8 9 -4 14 3 5 0
9 -6 9 -7 0 -10 -5 -8 -12z"/>
<path d="M3010 7716 c0 -2 8 -10 18 -17 15 -13 16 -12 3 4 -13 16 -21 21 -21
13z"/>
<path d="M1717 7689 c7 -7 15 -10 18 -7 3 3 -2 9 -12 12 -14 6 -15 5 -6 -5z"/>
<path d="M2979 7673 c-12 -16 -12 -17 2 -6 9 7 20 9 24 5 5 -4 5 -1 1 6 -9 16
-11 15 -27 -5z"/>
<path d="M3181 7624 c0 -11 3 -14 6 -6 3 7 2 16 -1 19 -3 4 -6 -2 -5 -13z"/>
<path d="M3126 7603 c-6 -14 -5 -15 5 -6 7 7 10 15 7 18 -3 3 -9 -2 -12 -12z"/>
<path d="M1851 7601 c-7 -5 -9 -11 -5 -14 5 -3 15 1 22 9 14 16 5 18 -17 5z"/>
<path d="M3232 7560 c0 -14 2 -19 5 -12 2 6 2 18 0 25 -3 6 -5 1 -5 -13z"/>
<path d="M1797 7499 c7 -7 15 -10 18 -7 3 3 -2 9 -12 12 -14 6 -15 5 -6 -5z"/>
<path d="M3206 7497 c-16 -12 -16 -13 3 -14 12 -1 21 4 21 13 0 17 -2 17 -24
1z"/>
<path d="M1595 7490 c3 -5 8 -10 11 -10 2 0 4 5 4 10 0 6 -5 10 -11 10 -5 0
-7 -4 -4 -10z"/>
<path d="M3107 7479 c7 -7 15 -10 18 -7 3 3 -2 9 -12 12 -14 6 -15 5 -6 -5z"/>
<path d="M1805 7470 c-4 -6 -11 -7 -17 -4 -7 4 -8 2 -4 -4 10 -16 23 -15 30 3
6 17 0 20 -9 5z"/>
<path d="M3156 7465 c4 -8 11 -15 16 -15 6 0 5 6 -2 15 -7 8 -14 15 -16 15 -2
0 -1 -7 2 -15z"/>
<path d="M1761 7444 c0 -11 3 -14 6 -6 3 7 2 16 -1 19 -3 4 -6 -2 -5 -13z"/>
<path d="M3196 7443 c-6 -14 -5 -15 5 -6 7 7 10 15 7 18 -3 3 -9 -2 -12 -12z"/>
<path d="M3015 7439 c-4 -6 -5 -12 -2 -15 2 -3 7 2 10 11 7 17 1 20 -8 4z"/>
<path d="M1780 7418 c0 -19 -2 -20 -10 -8 -5 8 -10 11 -10 5 0 -5 4 -16 8 -23
6 -9 12 -5 20 13 15 32 15 35 2 35 -5 0 -10 -10 -10 -22z"/>
<path d="M3207 7390 c3 -11 7 -20 9 -20 2 0 4 9 4 20 0 11 -4 20 -9 20 -5 0
-7 -9 -4 -20z"/>
<path d="M3175 7389 c-4 -6 -5 -12 -2 -15 2 -3 7 2 10 11 7 17 1 20 -8 4z"/>
<path d="M1341 7364 c0 -11 3 -14 6 -6 3 7 2 16 -1 19 -3 4 -6 -2 -5 -13z"/>
<path d="M3030 7371 c0 -6 4 -13 10 -16 6 -3 7 1 4 9 -7 18 -14 21 -14 7z"/>
<path d="M1330 7331 c0 -10 26 -9 36 2 4 4 -2 7 -14 7 -12 0 -22 -4 -22 -9z"/>
<path d="M1325 7269 c-4 -6 -5 -12 -2 -15 2 -3 7 2 10 11 7 17 1 20 -8 4z"/>
<path d="M3043 7155 c0 -22 2 -30 4 -17 2 12 2 30 0 40 -3 9 -5 -1 -4 -23z"/>
<path d="M3116 7168 c3 -5 10 -6 15 -3 13 9 11 12 -6 12 -8 0 -12 -4 -9 -9z"/>
<path d="M3150 7060 c-8 -5 -12 -12 -9 -15 4 -3 12 1 19 10 14 17 11 19 -10 5z"/>
<path d="M1737 7041 c-4 -17 -3 -21 5 -13 5 5 8 16 6 23 -3 8 -7 3 -11 -10z"/>
<path d="M1691 7026 c-9 -11 -9 -16 0 -22 7 -4 9 -3 5 4 -3 5 0 12 6 15 7 2
10 7 7 11 -3 4 -12 0 -18 -8z"/>
<path d="M3020 6990 c0 -11 4 -20 8 -20 4 0 8 9 9 20 1 11 -2 20 -8 20 -5 0
-9 -9 -9 -20z"/>
<path d="M1313 6957 c0 -8 6 -14 14 -14 9 0 10 4 2 14 -6 7 -12 13 -14 13 -1
0 -2 -6 -2 -13z"/>
<path d="M3035 6929 c-4 -6 -5 -12 -2 -15 2 -3 7 2 10 11 7 17 1 20 -8 4z"/>
<path d="M1326 6922 c-3 -6 -1 -14 5 -17 15 -10 25 3 12 16 -7 7 -13 7 -17 1z"/>
<path d="M1765 6910 c2 -27 10 -33 12 -10 1 11 -2 22 -6 24 -4 3 -7 -4 -6 -14z"/>
<path d="M3218 6888 c-9 -5 -6 -8 9 -8 12 0 24 4 27 8 7 11 -19 11 -36 0z"/>
<path d="M2990 6840 c0 -5 5 -10 10 -10 6 0 10 5 10 10 0 6 -4 10 -10 10 -5 0
-10 -4 -10 -10z"/>
<path d="M3236 6828 c3 -5 10 -6 15 -3 13 9 11 12 -6 12 -8 0 -12 -4 -9 -9z"/>
<path d="M2985 6809 c-4 -6 -5 -12 -2 -15 2 -3 7 2 10 11 7 17 1 20 -8 4z"/>
<path d="M3270 6815 c0 -5 5 -17 10 -25 5 -8 10 -10 10 -5 0 6 -5 17 -10 25
-5 8 -10 11 -10 5z"/>
<path d="M3086 6793 c-6 -14 -5 -15 5 -6 7 7 10 15 7 18 -3 3 -9 -2 -12 -12z"/>
<path d="M2932 6744 c-1 -13 2 -24 7 -24 14 0 20 38 7 43 -7 3 -13 -5 -14 -19z"/>
<path d="M3287 6747 c-3 -9 -2 -19 4 -23 15 -9 18 -2 9 20 -6 17 -7 18 -13 3z"/>
<path d="M2953 6704 c-3 -8 -1 -20 5 -26 8 -8 9 -4 5 12 -4 16 -3 21 5 16 7
-4 12 -2 12 3 0 17 -20 13 -27 -5z"/>
<path d="M2989 6693 c-12 -16 -12 -17 1 -7 8 6 22 14 30 17 13 5 12 6 -1 6 -9
1 -23 -7 -30 -16z"/>
<path d="M1405 6680 c3 -5 8 -10 11 -10 2 0 4 5 4 10 0 6 -5 10 -11 10 -5 0
-7 -4 -4 -10z"/>
<path d="M3294 6675 c11 -8 16 -20 12 -30 -4 -10 -2 -14 6 -9 6 4 17 -1 25
-11 7 -11 13 -14 13 -8 0 7 -6 18 -13 25 -8 7 -12 19 -9 27 3 8 0 11 -6 7 -6
-3 -13 -2 -17 4 -3 5 -12 10 -18 10 -7 0 -4 -7 7 -15z"/>
<path d="M3315 6609 c-4 -6 -5 -12 -2 -15 2 -3 7 2 10 11 7 17 1 20 -8 4z"/>
<path d="M2635 6510 c-38 -16 -76 -30 -82 -30 -7 0 -13 -4 -13 -10 0 -6 9 -6
24 0 13 5 27 6 30 3 3 -4 6 -1 6 6 0 7 4 10 9 6 5 -3 13 0 16 6 4 5 13 8 20 5
7 -2 16 2 19 10 3 8 14 14 25 14 11 0 23 5 26 10 9 15 -3 12 -80 -20z"/>
<path d="M1566 6517 c3 -10 9 -15 12 -12 3 3 0 11 -7 18 -10 9 -11 8 -5 -6z"/>
<path d="M2036 6518 c3 -5 10 -6 15 -3 13 9 11 12 -6 12 -8 0 -12 -4 -9 -9z"/>
<path d="M2000 6488 c0 -11 28 -10 35 1 3 6 -4 9 -15 8 -11 -1 -20 -5 -20 -9z"/>
<path d="M1503 6450 c-1 -11 2 -22 6 -24 3 -3 8 6 9 20 1 13 -2 24 -6 24 -4 0
-8 -9 -9 -20z"/>
<path d="M2249 6462 c9 -7 10 -11 2 -15 -7 -4 -8 -5 0 -4 15 3 13 21 -3 25
-10 3 -10 2 1 -6z"/>
<path d="M2491 6467 c2 -1 12 -9 22 -16 15 -12 17 -12 11 3 -3 9 -13 16 -22
16 -8 0 -13 -1 -11 -3z"/>
<path d="M2599 6453 c-13 -16 -12 -17 4 -4 9 7 17 15 17 17 0 8 -8 3 -21 -13z"/>
<path d="M3385 6460 c-3 -6 1 -7 9 -4 18 7 21 14 7 14 -6 0 -13 -4 -16 -10z"/>
<path d="M2428 6453 c7 -3 16 -2 19 1 4 3 -2 6 -13 5 -11 0 -14 -3 -6 -6z"/>
<path d="M3281 6444 c0 -11 3 -14 6 -6 3 7 2 16 -1 19 -3 4 -6 -2 -5 -13z"/>
<path d="M2320 6440 c0 -5 5 -10 11 -10 5 0 7 5 4 10 -3 6 -8 10 -11 10 -2 0
-4 -4 -4 -10z"/>
<path d="M2265 6430 c-3 -5 -1 -10 4 -10 6 0 11 5 11 10 0 6 -2 10 -4 10 -3 0
-8 -4 -11 -10z"/>
<path d="M3440 6422 c0 -11 4 -23 9 -27 6 -3 8 4 6 16 -6 30 -15 37 -15 11z"/>
<path d="M2360 6420 c-9 -6 -10 -10 -3 -10 6 0 15 5 18 10 8 12 4 12 -15 0z"/>
<path d="M1553 6399 c-2 -19 11 -26 21 -10 3 5 0 14 -7 19 -10 8 -13 6 -14 -9z"/>
<path d="M2490 6409 c0 -5 5 -7 10 -4 6 3 10 8 10 11 0 2 -4 4 -10 4 -5 0 -10
-5 -10 -11z"/>
<path d="M3355 6410 c3 -5 8 -10 11 -10 2 0 4 5 4 10 0 6 -5 10 -11 10 -5 0
-7 -4 -4 -10z"/>
<path d="M3046 6398 c3 -5 10 -6 15 -3 13 9 11 12 -6 12 -8 0 -12 -4 -9 -9z"/>
<path d="M2468 6383 c7 -3 16 -2 19 1 4 3 -2 6 -13 5 -11 0 -14 -3 -6 -6z"/>
<path d="M2310 6369 c0 -5 5 -7 10 -4 6 3 10 8 10 11 0 2 -4 4 -10 4 -5 0 -10
-5 -10 -11z"/>
<path d="M2886 6327 c3 -10 9 -15 12 -12 3 3 0 11 -7 18 -10 9 -11 8 -5 -6z"/>
<path d="M3488 6323 c7 -3 16 -2 19 1 4 3 -2 6 -13 5 -11 0 -14 -3 -6 -6z"/>
<path d="M3475 6301 c-11 -5 -23 -7 -27 -5 -4 3 -9 0 -13 -5 -7 -12 46 -3 60
10 11 11 7 11 -20 0z"/>
<path d="M1636 6291 c-3 -5 1 -14 9 -21 10 -9 15 -9 15 -1 0 6 -5 11 -11 11
-5 0 -7 5 -4 10 3 6 4 10 1 10 -3 0 -7 -4 -10 -9z"/>
<path d="M3331 6291 c-10 -7 -7 -9 12 -8 14 1 23 5 20 10 -6 9 -15 9 -32 -2z"/>
<path d="M2205 6280 c-3 -5 -1 -10 4 -10 6 0 11 5 11 10 0 6 -2 10 -4 10 -3 0
-8 -4 -11 -10z"/>
<path d="M3512 6270 c0 -14 2 -19 5 -12 2 6 2 18 0 25 -3 6 -5 1 -5 -13z"/>
<path d="M3480 6270 c0 -5 5 -10 10 -10 6 0 10 5 10 10 0 6 -4 10 -10 10 -5 0
-10 -4 -10 -10z"/>
<path d="M2773 6235 c0 -8 4 -12 9 -9 5 3 6 10 3 15 -9 13 -12 11 -12 -6z"/>
<path d="M3396 6239 c4 -8 -1 -9 -17 -4 -17 4 -20 3 -10 -3 11 -8 11 -10 0
-14 -9 -3 -8 -6 5 -11 9 -4 15 -3 12 2 -3 5 1 12 10 15 26 10 28 0 5 -23 -12
-12 -17 -21 -12 -21 5 0 19 12 30 26 17 21 21 23 21 9 0 -11 5 -15 16 -11 9 3
19 6 22 6 4 0 -4 7 -16 16 -12 8 -26 13 -31 9 -5 -3 -12 -1 -16 5 -3 5 -11 10
-16 10 -6 0 -7 -5 -3 -11z"/>
<path d="M2577 6229 c7 -7 15 -10 18 -7 3 3 -2 9 -12 12 -14 6 -15 5 -6 -5z"/>
<path d="M3490 6229 c0 -5 5 -7 10 -4 6 3 10 8 10 11 0 2 -4 4 -10 4 -5 0 -10
-5 -10 -11z"/>
<path d="M1710 6224 c0 -17 27 -37 42 -31 8 4 7 6 -4 6 -9 1 -22 9 -27 19 -6
9 -11 12 -11 6z"/>
<path d="M3355 6180 c-3 -5 -1 -10 4 -10 6 0 11 5 11 10 0 6 -2 10 -4 10 -3 0
-8 -4 -11 -10z"/>
<path d="M3160 6159 c0 -21 58 -33 94 -19 32 12 33 15 2 15 -13 0 -22 -4 -18
-9 3 -5 -9 -6 -28 -2 -19 3 -38 12 -42 19 -5 9 -8 7 -8 -4z"/>
<path d="M1810 6151 c0 -5 8 -15 17 -22 11 -10 14 -10 9 -1 -9 15 6 16 21 1 8
-8 13 -7 18 2 5 7 4 10 -2 6 -6 -4 -16 0 -23 8 -14 16 -40 20 -40 6z"/>
<path d="M2724 6103 c4 -7 -2 -13 -15 -15 -15 -2 -11 -6 18 -15 29 -9 34 -9
22 0 -9 7 -16 16 -17 20 0 5 -4 12 -8 15 -4 4 -4 2 0 -5z"/>
<path d="M1925 6080 c3 -5 8 -10 11 -10 2 0 4 5 4 10 0 6 -5 10 -11 10 -5 0
-7 -4 -4 -10z"/>
<path d="M2067 6046 c-3 -8 2 -20 11 -27 14 -11 15 -11 5 0 -6 7 -9 20 -6 27
3 8 3 14 0 14 -3 0 -7 -6 -10 -14z"/>
<path d="M2773 6053 c-17 -6 -17 -20 0 -20 8 0 14 6 14 14 0 7 -1 13 -1 12 -1
0 -7 -3 -13 -6z"/>
<path d="M2650 6016 c0 -2 8 -10 18 -17 15 -13 16 -12 3 4 -13 16 -21 21 -21
13z"/>
<path d="M2156 5998 c3 -4 9 -8 15 -8 5 0 9 4 9 8 0 5 -7 9 -15 9 -8 0 -12 -4
-9 -9z"/>
<path d="M2200 5990 c-13 -8 -12 -10 3 -10 9 0 17 5 17 10 0 12 -1 12 -20 0z"/>
<path d="M2242 5988 c3 -8 25 -14 54 -15 41 -1 46 0 29 10 -26 14 -47 18 -39
6 3 -5 -4 -9 -16 -9 -12 0 -18 5 -15 10 3 6 1 10 -5 10 -7 0 -10 -6 -8 -12z"/>
<path d="M2478 5993 c7 -3 16 -2 19 1 4 3 -2 6 -13 5 -11 0 -14 -3 -6 -6z"/>
<path d="M2520 5996 c0 -2 8 -10 18 -17 15 -13 16 -12 3 4 -13 16 -21 21 -21
13z"/>
<path d="M2618 5983 c6 -2 18 -2 25 0 6 3 1 5 -13 5 -14 0 -19 -2 -12 -5z"/>
<path d="M2350 5971 c0 -9 38 -12 44 -3 2 4 -7 8 -20 8 -13 1 -24 -1 -24 -5z"/>
<path d="M7585 8229 c-95 -13 -240 -52 -328 -89 -148 -61 -344 -188 -378 -244
-25 -41 -24 -68 7 -173 51 -178 67 -309 61 -513 -4 -134 -11 -209 -25 -270
-48 -204 -115 -366 -216 -525 -31 -49 -59 -101 -63 -114 -8 -32 20 -87 54
-104 51 -26 626 -188 798 -226 360 -78 723 0 983 209 30 25 56 53 58 63 1 11
4 20 6 21 2 0 14 10 28 21 21 17 20 14 -4 -13 -39 -42 -19 -42 22 1 20 21 30
40 27 49 -4 9 -2 19 4 23 7 4 9 -1 5 -12 -3 -10 13 2 35 27 42 46 55 73 24 49
-16 -13 -17 -12 -5 3 8 10 19 16 24 15 17 -3 105 151 139 243 123 338 94 701
-80 999 -43 72 -87 129 -77 99 7 -25 -1 -22 -15 3 -8 15 -8 19 0 15 27 -17 7
15 -45 72 -31 34 -61 59 -66 56 -6 -4 -8 -3 -5 3 7 11 -34 52 -107 106 -49 37
-73 47 -60 25 4 -7 3 -8 -5 -4 -6 4 -9 11 -6 16 15 25 -223 124 -372 155 -94
20 -321 28 -418 14z m98 -16 c-18 -2 -48 -2 -65 0 -18 2 -4 4 32 4 36 0 50 -2
33 -4z m205 0 c-15 -2 -42 -2 -60 0 -18 2 -6 4 27 4 33 0 48 -2 33 -4z m75
-10 c-7 -2 -19 -2 -25 0 -7 3 -2 5 12 5 14 0 19 -2 13 -5z m-433 -7 c0 -2 -11
-6 -25 -8 -14 -3 -25 -1 -25 3 0 5 11 9 25 9 14 0 25 -2 25 -4z m520 -6 l25
-8 -25 0 c-14 0 -36 4 -50 8 l-25 8 25 0 c14 0 36 -4 50 -8z m-600 -7 c-8 -3
-24 -10 -35 -15 -20 -9 -20 -9 -1 6 11 9 27 16 35 15 14 0 14 -1 1 -6z m145
-3 c-3 -5 -12 -10 -18 -10 -7 0 -6 4 3 10 19 12 23 12 15 0z m530 -10 c13 -5
14 -9 5 -9 -8 0 -24 4 -35 9 -13 5 -14 9 -5 9 8 0 24 -4 35 -9z m-775 -20 c-8
-5 -22 -10 -30 -10 -13 0 -13 1 0 10 8 5 22 10 30 10 13 0 13 -1 0 -10z m841
-5 c19 -8 27 -14 19 -14 -14 0 -72 28 -59 29 4 0 22 -7 40 -15z m-901 -15 c-8
-5 -19 -10 -25 -10 -5 0 -3 5 5 10 8 5 20 10 25 10 6 0 3 -5 -5 -10z m-101
-44 c-10 -9 -69 -36 -69 -32 0 7 52 35 64 36 5 0 7 -2 5 -4z m1151 -12 c0 -2
-7 -4 -15 -4 -8 0 -15 4 -15 10 0 5 7 7 15 4 8 -4 15 -8 15 -10z m-830 -4 c0
-5 -2 -10 -4 -10 -3 0 -8 5 -11 10 -3 6 -1 10 4 10 6 0 11 -4 11 -10z m841
-23 c-10 -9 -11 -8 -5 6 3 10 9 15 12 12 3 -3 0 -11 -7 -18z m-960 -24 c13
-16 12 -17 -3 -4 -10 7 -18 15 -18 17 0 8 8 3 21 -13z m1026 1 c-3 -3 -12 -4
-19 -1 -8 3 -5 6 6 6 11 1 17 -2 13 -5z m-1382 -24 c-3 -5 -16 -15 -28 -21
-19 -9 -19 -8 3 10 28 23 34 26 25 11z m1425 -5 c11 -13 10 -14 -4 -9 -9 3
-16 10 -16 15 0 13 6 11 20 -6z m-926 -13 c3 -5 -1 -9 -9 -9 -8 0 -12 4 -9 9
3 4 7 8 9 8 2 0 6 -4 9 -8z m-576 -41 c-7 -11 -21 -22 -32 -25 -16 -4 -13 0 9
19 37 30 38 30 23 6z m1573 -8 c13 -16 12 -17 -3 -4 -10 7 -18 15 -18 17 0 8
8 3 21 -13z m-1021 -18 c0 -8 -4 -15 -10 -15 -5 0 -7 7 -4 15 4 8 8 15 10 15
2 0 4 -7 4 -15z m-226 -41 c5 -14 4 -15 -9 -4 -17 14 -19 20 -6 20 5 0 12 -7
15 -16z m-399 -46 c1 -13 4 -36 8 -53 5 -20 4 -25 -2 -15 -14 22 -25 90 -15
90 5 0 9 -10 9 -22z m1759 -14 c3 -8 2 -12 -4 -9 -6 3 -10 10 -10 16 0 14 7
11 14 -7z m-791 -11 c-13 -2 -35 -2 -50 0 -16 2 -5 4 22 4 28 0 40 -2 28 -4z
m-164 -16 c-10 -7 -110 -35 -104 -29 9 10 99 40 104 36 2 -2 2 -5 0 -7z m38 7
c-3 -3 -12 -4 -19 -1 -8 3 -5 6 6 6 11 1 17 -2 13 -5z m186 -1 c-7 -2 -19 -2
-25 0 -7 3 -2 5 12 5 14 0 19 -2 13 -5z m78 -15 c22 -6 39 -15 39 -19 0 -4
-15 -2 -32 5 -18 7 -40 16 -48 19 -28 10 3 7 41 -5z m2 -27 c32 -13 78 -38
102 -57 53 -40 68 -44 35 -9 -13 14 -20 25 -16 25 13 0 37 -29 41 -51 3 -12
13 -32 23 -43 91 -102 115 -270 57 -395 -13 -28 -23 -57 -21 -64 1 -6 1 -8 -2
-4 -2 4 -28 -14 -56 -40 -29 -26 -80 -69 -114 -95 -43 -34 -73 -68 -102 -119
-59 -101 -117 -121 -191 -69 -14 11 -28 17 -31 14 -3 -2 -11 4 -19 13 -13 17
-13 17 5 3 18 -14 19 -14 11 5 -5 11 -10 40 -13 65 -3 37 2 53 27 90 16 24 27
49 24 55 -4 5 -2 7 2 2 15 -13 45 24 35 42 -6 13 -4 17 10 17 14 0 16 -3 8
-13 -21 -26 5 -12 56 29 90 73 126 111 121 128 -2 8 0 22 6 30 8 11 9 9 4 -10
-6 -19 -4 -22 5 -14 19 18 27 75 17 122 -11 54 -66 113 -123 130 -23 6 -67 12
-98 12 -101 0 -170 -45 -212 -136 -30 -67 -64 -94 -120 -94 -31 0 -51 7 -73
25 -63 54 -62 128 4 225 19 29 32 57 28 63 -3 7 -3 9 2 5 10 -9 87 51 80 62
-3 5 0 12 6 16 8 4 9 3 5 -4 -10 -17 6 -15 33 4 13 9 53 28 90 41 58 21 79 23
181 20 90 -3 128 -9 173 -26z m-1080 -31 c3 -11 1 -18 -4 -14 -5 3 -9 12 -9
20 0 20 7 17 13 -6z m1798 3 c13 -16 12 -17 -3 -4 -10 7 -18 15 -18 17 0 8 8
3 21 -13z m-1221 -27 c0 -2 -8 -10 -17 -17 -16 -13 -17 -12 -4 4 13 16 21 21
21 13z m-556 -66 c4 -24 3 -28 -2 -15 -14 31 -24 83 -13 65 5 -8 11 -31 15
-50z m1817 23 c13 -16 12 -17 -3 -4 -10 7 -18 15 -18 17 0 8 8 3 21 -13z
m-553 -23 c7 -11 11 -20 9 -20 -2 0 -12 9 -22 20 -10 11 -14 20 -9 20 5 0 15
-9 22 -20z m-820 -60 c-32 -51 -48 -68 -27 -27 15 28 49 77 54 77 2 0 -10 -22
-27 -50z m881 -50 c0 -3 -8 11 -18 30 -11 19 -17 39 -14 44 5 7 33 -58 32 -74z
m-1312 28 c-3 -7 -5 -2 -5 12 0 14 2 19 5 13 2 -7 2 -19 0 -25z m903 -15 c0
-5 -29 -9 -63 -9 -35 -1 -74 -7 -86 -14 -15 -7 -21 -8 -17 -1 14 22 166 44
166 24z m55 -13 l20 -9 -20 0 c-11 0 -27 4 -35 9 -13 9 -13 10 0 9 8 0 24 -4
35 -9z m-948 -37 c-3 -10 -5 -4 -5 12 0 17 2 24 5 18 2 -7 2 -21 0 -30z m376
-21 c-4 -34 -1 -58 11 -83 9 -19 11 -27 4 -18 -7 9 -19 15 -26 13 -7 -1 -8 0
-3 2 6 3 8 18 4 34 -5 28 3 100 12 100 2 0 1 -22 -2 -48z m316 11 c-8 -10 -17
-20 -21 -23 -4 -3 -11 -17 -17 -30 -6 -16 -10 -19 -10 -8 -1 9 11 30 25 47 27
32 46 44 23 14z m636 -2 c3 -5 1 -12 -5 -16 -5 -3 -10 1 -10 9 0 18 6 21 15 7z
m-286 -45 c-3 -3 -11 5 -18 17 -13 21 -12 21 5 5 10 -10 16 -20 13 -22z
m-1032 -43 c-2 -16 -4 -5 -4 22 0 28 2 40 4 28 2 -13 2 -35 0 -50z m1320 -45
c-2 -18 -4 -4 -4 32 0 36 2 50 4 33 2 -18 2 -48 0 -65z m-280 50 c-3 -8 -6 -5
-6 6 -1 11 2 17 5 13 3 -3 4 -12 1 -19z m871 -73 c0 -11 -6 3 -14 30 -7 28
-13 55 -13 60 2 17 27 -69 27 -90z m-1877 42 c-10 -9 -11 -8 -5 6 3 10 9 15
12 12 3 -3 0 -11 -7 -18z m589 10 c0 -2 -10 -12 -22 -23 l-23 -19 19 23 c18
21 26 27 26 19z m-613 -154 c-2 -21 -4 -4 -4 37 0 41 2 58 4 38 2 -21 2 -55 0
-75z m454 89 c-7 -2 -18 1 -23 6 -8 8 -4 9 13 5 13 -4 18 -8 10 -11z m839 -49
c-11 -17 -11 -17 -6 0 3 10 6 24 7 30 0 9 2 9 5 0 3 -7 0 -20 -6 -30z m617 -5
c-3 -7 -5 -2 -5 12 0 14 2 19 5 13 2 -7 2 -19 0 -25z m-947 -11 c0 -2 -10 -12
-22 -23 l-23 -19 19 23 c18 21 26 27 26 19z m320 -15 c0 -5 -7 -17 -15 -28
-14 -18 -14 -17 -4 9 12 27 19 34 19 19z m637 -79 c-2 -16 -4 -3 -4 27 0 30 2
43 4 28 2 -16 2 -40 0 -55z m-1017 43 c0 -2 -8 -10 -17 -17 -16 -13 -17 -12
-4 4 13 16 21 21 21 13z m-894 -48 c4 -6 3 -8 -4 -4 -7 4 -12 -7 -15 -31 l-4
-38 -1 43 c-2 40 9 55 24 30z m1204 -21 c0 -2 -12 -14 -27 -28 l-28 -24 24 28
c23 25 31 32 31 24z m-600 -69 c0 -4 -7 -8 -15 -8 -8 0 -15 4 -15 8 0 5 7 9
15 9 8 0 15 -4 15 -9z m140 7 c0 -2 -9 -19 -19 -36 -18 -30 -19 -30 -18 -6 1
14 7 25 12 24 6 -1 9 4 8 11 -2 6 2 12 7 12 6 0 10 -2 10 -5z m-775 -60 c-3
-26 -8 -45 -11 -43 -2 3 -1 26 2 52 4 25 9 44 12 42 2 -3 1 -26 -3 -51z m380
45 c3 -5 1 -10 -4 -10 -6 0 -11 5 -11 10 0 6 2 10 4 10 3 0 8 -4 11 -10z
m1562 -72 c-2 -13 -4 -3 -4 22 0 25 2 35 4 23 2 -13 2 -33 0 -45z m-1960 -60
c-3 -7 -5 -2 -5 12 0 14 2 19 5 13 2 -7 2 -19 0 -25z m1033 2 c-6 -11 -13 -20
-16 -20 -2 0 0 9 6 20 6 11 13 20 16 20 2 0 0 -9 -6 -20z m914 -39 c-4 -23 -9
-40 -11 -37 -3 3 -2 23 2 46 4 23 9 39 11 37 3 -2 2 -23 -2 -46z m-1381 14
c-3 -9 -8 -14 -10 -11 -3 3 -2 9 2 15 9 16 15 13 8 -4z m-579 -34 c-4 -17 -9
-30 -11 -27 -3 2 -2 19 2 36 4 17 9 30 11 27 2 -2 1 -18 -2 -36z m1207 6 c-10
-9 -11 -8 -5 6 3 10 9 15 12 12 3 -3 0 -11 -7 -18z m-355 -64 c-6 -6 -36 9
-36 18 0 5 9 4 20 -3 10 -7 18 -14 16 -15z m704 17 c0 -5 -2 -10 -4 -10 -3 0
-8 5 -11 10 -3 6 -1 10 4 10 6 0 11 -4 11 -10z m387 -12 c-3 -8 -6 -5 -6 6 -1
11 2 17 5 13 3 -3 4 -12 1 -19z m-984 1 c-6 -6 -30 -12 -54 -15 l-44 -3 44 9
c24 5 46 12 49 15 3 3 8 5 11 5 3 0 0 -5 -6 -11z m-322 -32 c-10 -9 -11 -8 -5
6 3 10 9 15 12 12 3 -3 0 -11 -7 -18z m-667 -14 c-6 -25 -24 -56 -24 -41 0 10
22 68 26 68 2 0 1 -12 -2 -27z m1958 -13 c-7 -19 -10 -21 -15 -7 -4 10 -2 17
3 17 6 0 10 8 11 18 0 9 3 12 5 6 3 -6 1 -21 -4 -34z m-1442 26 c0 -3 -4 -8
-10 -11 -5 -3 -10 -1 -10 4 0 6 5 11 10 11 6 0 10 -2 10 -4z m-137 -21 c-3 -9
-8 -14 -10 -11 -3 3 -2 9 2 15 9 16 15 13 8 -4z m596 -34 c8 -5 -5 -7 -35 -4
-68 6 -77 11 -24 12 25 0 51 -3 59 -8z m21 -39 c48 -36 72 -83 67 -131 -12
-106 -121 -166 -215 -117 -85 44 -98 173 -24 239 44 40 124 44 172 9z m-1029
-9 c-12 -20 -14 -14 -5 12 4 9 9 14 11 11 3 -2 0 -13 -6 -23z m1088 -15 c18
-23 25 -45 27 -87 l3 -56 -8 58 c-7 47 -15 66 -42 93 -19 20 -27 32 -19 29 8
-4 26 -20 39 -37z m151 22 c0 -5 -5 -10 -11 -10 -5 0 -7 5 -4 10 3 6 8 10 11
10 2 0 4 -4 4 -10z m390 -4 c0 -3 -4 -8 -10 -11 -5 -3 -10 -1 -10 4 0 6 5 11
10 11 6 0 10 -2 10 -4z m-430 -16 c0 -5 -2 -10 -4 -10 -3 0 -8 5 -11 10 -3 6
-1 10 4 10 6 0 11 -4 11 -10z m-394 -37 c-8 -15 -15 -25 -16 -21 0 12 23 58
27 54 3 -2 -2 -17 -11 -33z m1137 -3 c-3 -11 -10 -23 -16 -27 -5 -3 -8 -2 -5
3 3 5 8 17 11 27 9 24 16 22 10 -3z m-1967 -16 c-4 -9 -9 -15 -11 -12 -3 3 -3
13 1 22 4 9 9 15 11 12 3 -3 3 -13 -1 -22z m249 -4 c3 -6 -1 -7 -9 -4 -18 7
-21 14 -7 14 6 0 13 -4 16 -10z m110 -10 c3 -5 1 -10 -4 -10 -6 0 -11 5 -11
10 0 6 2 10 4 10 3 0 8 -4 11 -10z m-404 -63 c-10 -9 -11 -8 -5 6 3 10 9 15
12 12 3 -3 0 -11 -7 -18z m499 -41 c0 -3 -4 -8 -10 -11 -5 -3 -10 -1 -10 4 0
6 5 11 10 11 6 0 10 -2 10 -4z m-555 -56 c-3 -5 -1 -10 6 -10 7 0 10 -3 6 -6
-9 -9 -28 6 -22 17 4 5 8 9 11 9 3 0 2 -4 -1 -10z m1260 -10 c8 -13 -5 -13
-25 0 -13 8 -13 10 2 10 9 0 20 -4 23 -10z m-1287 -32 c-7 -13 -11 -26 -10
-30 1 -3 -6 -9 -15 -12 -14 -6 -14 -4 -1 16 8 13 18 29 22 36 13 22 17 13 4
-10z m1147 12 c-11 -5 -33 -8 -50 -8 -29 1 -29 1 5 8 49 10 69 10 45 0z m805
-15 c-7 -9 -15 -13 -17 -11 -7 7 7 26 19 26 6 0 6 -6 -2 -15z m-1405 -25 c3
-6 -1 -7 -9 -4 -18 7 -21 14 -7 14 6 0 13 -4 16 -10z m-572 -92 c8 -5 6 -8 -5
-8 -14 0 -18 8 -17 38 2 34 2 34 6 7 3 -16 10 -33 16 -37z m1392 52 c3 -6 -1
-7 -9 -4 -18 7 -21 14 -7 14 6 0 13 -4 16 -10z m-1075 -6 c0 -8 -19 -13 -24
-6 -3 5 1 9 9 9 8 0 15 -2 15 -3z m351 -57 c-10 -9 -11 -8 -5 6 3 10 9 15 12
12 3 -3 0 -11 -7 -18z m-81 -1 c0 -2 -7 -7 -16 -10 -8 -3 -12 -2 -9 4 6 10 25
14 25 6z m-580 -15 c0 -6 31 -20 70 -32 38 -13 68 -25 65 -27 -7 -7 -133 39
-145 54 -9 10 -9 14 -1 14 6 0 11 -4 11 -9z m1809 -17 c-7 -9 -33 -30 -58 -47
-34 -22 -41 -25 -27 -9 10 12 27 24 37 27 11 4 16 11 13 17 -4 6 -2 8 3 5 6
-4 16 0 23 8 7 8 15 15 17 15 3 0 0 -7 -8 -16z m-1292 -10 c-3 -3 -12 -4 -19
-1 -8 3 -5 6 6 6 11 1 17 -2 13 -5z m-282 -55 c14 -13 -14 -10 -55 6 l-35 14
40 -6 c22 -3 44 -9 50 -14z m550 1 c-3 -5 -12 -10 -18 -10 -7 0 -6 4 3 10 19
12 23 12 15 0z m165 -16 c0 -8 -19 -13 -24 -6 -3 5 1 9 9 9 8 0 15 -2 15 -3z
m750 1 c0 -2 -9 -9 -19 -15 -14 -7 -22 -7 -27 2 -4 6 -3 8 2 5 6 -3 16 -2 24
4 17 10 20 11 20 4z m-1297 -33 c59 -16 107 -25 107 -20 0 4 -6 8 -14 8 -8 0
-18 4 -21 10 -8 13 27 0 40 -15 6 -6 19 -17 30 -24 l20 -12 -20 5 c-76 18
-261 69 -264 72 -9 8 17 3 122 -24z m854 13 c0 -8 -4 -12 -9 -9 -5 3 -6 10 -3
15 9 13 12 11 12 -6z m173 -10 c-7 -8 -17 -15 -23 -15 -6 0 -2 7 9 15 25 19
30 19 14 0z m210 -6 c-25 -17 -116 -62 -107 -53 11 12 100 62 112 63 6 0 3 -4
-5 -10z m-855 -9 c-3 -5 -12 -10 -18 -10 -7 0 -6 4 3 10 19 12 23 12 15 0z
m-171 -42 c-2 -3 -1 -8 3 -11 5 -2 2 -2 -5 0 -8 1 -20 3 -28 3 -8 0 -14 3 -14
8 0 4 11 7 24 7 13 0 22 -3 20 -7z m902 -7 c-6 -10 -92 -41 -110 -40 -9 0 39
20 112 48 2 0 1 -3 -2 -8z m-770 -38 c-5 -6 -96 18 -101 27 -2 4 20 0 50 -8
30 -8 53 -17 51 -19z m644 -3 c0 -5 -8 -10 -17 -10 -15 0 -16 2 -3 10 19 12
20 12 20 0z m-507 -13 c15 -1 27 -5 27 -9 0 -11 -26 -9 -95 7 -59 14 -59 15
-10 9 28 -4 62 -7 78 -7z m460 -4 c-7 -2 -19 -2 -25 0 -7 3 -2 5 12 5 14 0 19
-2 13 -5z m-50 -10 c-7 -2 -19 -2 -25 0 -7 3 -2 5 12 5 14 0 19 -2 13 -5z
m-320 -10 c-7 -2 -21 -2 -30 0 -10 3 -4 5 12 5 17 0 24 -2 18 -5z m260 0 c-13
-2 -33 -2 -45 0 -13 2 -3 4 22 4 25 0 35 -2 23 -4z m-110 -10 c-18 -2 -48 -2
-65 0 -18 2 -4 4 32 4 36 0 50 -2 33 -4z"/>
<path d="M4455 5173 c-63 -13 -95 -54 -95 -120 0 -54 31 -100 77 -113 27 -8
230 -10 678 -8 592 3 642 4 666 21 33 22 49 57 49 107 0 58 -41 100 -106 111
-50 8 -1232 10 -1269 2z"/>
<path d="M4575 4745 c-54 -19 -75 -49 -75 -110 0 -60 19 -91 66 -111 49 -20
1009 -21 1058 0 54 22 79 63 73 119 -5 59 -33 91 -92 106 -70 18 -979 14
-1030 -4z"/>
<path d="M4720 4350 c0 -12 9 -37 19 -58 103 -201 380 -273 573 -151 80 51
167 163 168 217 0 9 -83 12 -380 12 -376 0 -380 0 -380 -20z"/>
<path d="M6205 4014 c-157 -81 -150 -308 10 -370 84 -32 193 3 242 78 25 36
28 51 28 119 0 71 -2 80 -30 115 -17 20 -46 45 -65 55 -44 24 -143 25 -185 3z"/>
<path d="M1807 3970 c-184 -31 -341 -114 -468 -247 -161 -167 -244 -369 -255
-623 -18 -389 156 -717 461 -870 118 -59 216 -81 375 -87 173 -6 251 9 416 83
6 3 52 -47 102 -110 76 -96 98 -117 131 -127 96 -29 205 41 218 139 7 50 -6
73 -112 207 l-77 97 24 26 c80 86 152 235 179 368 28 133 23 377 -10 499 -42
158 -144 333 -249 426 -195 174 -486 260 -735 219z m266 -335 c87 -23 155 -61
219 -126 174 -174 218 -501 101 -761 -14 -32 -28 -58 -32 -58 -3 0 -44 51 -91
111 -47 61 -98 122 -113 135 -85 72 -247 -21 -247 -141 0 -48 7 -60 112 -192
85 -108 87 -113 66 -124 -31 -17 -176 -23 -237 -10 -91 19 -161 59 -236 135
-120 122 -165 241 -165 441 0 203 58 353 180 468 37 35 89 74 116 87 101 49
223 62 327 35z"/>
<path d="M3456 3475 c-235 -60 -389 -242 -437 -519 -17 -101 -7 -293 21 -381
71 -227 223 -379 419 -421 183 -38 335 0 457 117 l64 62 0 -281 c0 -154 4
-292 10 -306 17 -46 55 -61 155 -61 71 0 97 4 119 18 57 38 56 16 56 878 0
873 3 835 -63 874 -43 26 -138 27 -196 1 -50 -23 -71 -58 -71 -121 0 -25 -3
-45 -7 -44 -5 0 -22 19 -38 42 -38 52 -110 107 -172 131 -65 25 -237 31 -317
11z m318 -286 c107 -39 190 -143 217 -270 6 -29 9 -92 7 -140 -11 -192 -130
-328 -301 -346 -193 -20 -337 140 -337 374 0 135 33 234 101 308 86 93 195
119 313 74z"/>
<path d="M8263 3475 c-212 -57 -336 -224 -320 -432 7 -91 32 -147 90 -200 72
-67 163 -105 400 -168 54 -15 114 -33 133 -41 129 -54 104 -184 -41 -214 -118
-25 -237 6 -352 91 -60 45 -72 50 -106 46 -48 -7 -112 -48 -137 -90 -28 -46
-25 -88 9 -131 95 -120 250 -184 466 -193 203 -8 346 36 451 141 79 80 108
147 112 264 4 88 2 97 -27 157 -57 116 -166 182 -431 261 -176 52 -200 63
-229 100 -31 40 -27 80 12 119 77 77 254 66 367 -24 48 -38 74 -51 105 -51 58
0 147 69 161 125 19 78 -141 200 -313 239 -89 20 -277 20 -350 1z"/>
<path d="M5541 3467 c-19 -7 -44 -25 -55 -40 -20 -27 -21 -43 -26 -395 l-5
-367 -26 -55 c-50 -105 -129 -160 -240 -168 -82 -6 -129 9 -182 57 -81 73 -81
76 -87 511 -5 405 -6 412 -52 444 -28 20 -181 22 -218 3 -14 -7 -33 -28 -42
-47 -16 -32 -18 -75 -18 -462 0 -389 2 -431 19 -487 26 -82 60 -138 120 -194
185 -173 496 -166 672 13 32 33 61 60 64 60 3 0 5 -16 5 -35 0 -49 23 -100 54
-120 14 -10 54 -20 89 -22 79 -7 151 21 167 62 6 16 10 243 10 600 l0 575 -27
30 c-22 24 -41 33 -88 40 -75 12 -91 12 -134 -3z"/>
<path d="M6159 3441 l-29 -29 0 -592 0 -591 24 -24 c45 -45 171 -60 236 -27
72 35 70 20 70 652 0 507 -2 568 -16 589 -26 36 -74 51 -169 51 -82 0 -88 -1
-116 -29z"/>
<path d="M6789 3463 c-15 -2 -37 -15 -50 -29 -32 -34 -39 -151 -12 -204 28
-54 55 -59 331 -59 142 -1 242 -5 242 -10 0 -5 -89 -117 -197 -248 -230 -279
-395 -497 -412 -543 -6 -18 -11 -57 -11 -87 0 -47 4 -59 29 -84 l29 -29 477 0
c528 0 533 1 554 60 26 76 6 179 -42 214 -27 20 -43 21 -313 24 -156 2 -284 6
-284 9 0 3 98 125 218 271 399 487 402 492 402 589 0 75 -24 109 -85 123 -38
9 -821 11 -876 3z"/>
</g>
</svg>
